<svg xmlns="http://www.w3.org/2000/svg" viewBox="0 0 886 736.065">
  <defs>
    <style>
      .cls-1 {
        fill: #cbe7f5;
      }

      .cls-2 {
        fill: #ced4d9;
      }
    </style>
  </defs>
  <g id="rainy" transform="translate(-305 -186)">
    <path id="rain" class="cls-1" d="M456,266.5c0-41.145,13.431-74.5,30-74.5s30,33.355,30,74.5S502.568,341,486,341,456,307.645,456,266.5ZM186,218c0-41.973,12.088-76,27-76s27,34.026,27,76-12.089,76-27,76S186,259.974,186,218Zm225,19c0-24.853,6.716-45,15-45s15,20.147,15,45-6.716,45-15,45S411,261.853,411,237Zm175-89c0-24.853,6.716-45,15-45s15,20.147,15,45-6.715,45-15,45S586,172.853,586,148ZM0,103C0,61.579,16.341,28,36.5,28S73,61.579,73,103s-16.341,75-36.5,75S0,144.421,0,103ZM363,85c0-31.48,13.208-57,29.5-57S422,53.519,422,85s-13.208,57-29.5,57S363,116.48,363,85ZM639,57c0-31.48,13.208-57,29.5-57S698,25.52,698,57s-13.208,57-29.5,57S639,88.48,639,57ZM166,59c0-17.122,4.477-31,10-31s10,13.879,10,31-4.477,31-10,31S166,76.121,166,59Z" transform="matrix(1, -0.017, 0.017, 1, 396.078, 581.117)"/>
    <path id="cloud" class="cls-2" d="M580.015,447.353C535.461,454.82,485.608,459,433,459c-103.793,0-196.819-16.264-259.717-41.961A123.65,123.65,0,0,1,124.5,427C55.741,427,0,371.036,0,302S55.741,177,124.5,177a123.749,123.749,0,0,1,45.775,8.719C189.863,122.634,246.807,77,314,77a145.89,145.89,0,0,1,75.058,20.739C415.588,39.782,470.306,0,533.5,0c81.431,0,148.786,66.056,159.893,151.941A140.61,140.61,0,0,1,748,141c76.216,0,138,60.217,138,134.5,0,68.733-52.9,125.424-121.178,133.511C752.85,442.292,708.447,467,655.5,467,626.451,467,599.976,459.563,580.015,447.353Z" transform="translate(305 186)"/>
  </g>
</svg>
